<svg xmlns="http://www.w3.org/2000/svg" viewBox="0 0 600 420">
<defs>
 <linearGradient id="tb" x1="0" y1="0" x2="1" y2="1"><stop stop-color="#f0f2f3"/><stop offset=".5" stop-color="#c7cdd1"/><stop offset="1" stop-color="#8f989f"/></linearGradient>
 <filter id="ts" x="-20%" y="-20%" width="140%" height="150%"><feDropShadow dx="0" dy="18" stdDeviation="16" flood-opacity=".55"/></filter>
</defs>
<g filter="url(#ts)">
<rect x="102" y="82" width="396" height="255" rx="15" fill="#22282d" stroke="#5b666f" stroke-width="3"/>
<rect x="120" y="101" width="360" height="217" rx="9" fill="#11171b" stroke="#424d55"/>
<rect x="140" y="123" width="118" height="174" rx="6" fill="url(#tb)" stroke="#737d84"/>
<rect x="154" y="142" width="90" height="39" rx="4" fill="#183622" stroke="#4f815e"/>
<text x="166" y="166" fill="#83e99b" font-family="Consolas" font-size="12">BUS READY</text>
<rect x="154" y="195" width="90" height="74" rx="4" fill="#bbc2c6" stroke="#7e878d"/>
<circle cx="177" cy="218" r="7" fill="#61d97c"/><circle cx="205" cy="218" r="7" fill="#1597ff"/><circle cx="229" cy="218" r="7" fill="#e9bd45"/>
<text x="165" y="254" fill="#333a40" font-family="Arial" font-size="11" font-weight="700">TeSys Tera</text>
<rect x="275" y="123" width="84" height="174" rx="6" fill="url(#tb)" stroke="#737d84"/>
<rect x="289" y="142" width="56" height="49" rx="4" fill="#252c31" stroke="#6d777f"/>
<text x="297" y="172" fill="#e7ecef" font-family="Arial" font-size="10">MOTOR</text>
<rect x="290" y="207" width="54" height="62" rx="5" fill="#adb5ba" stroke="#798188"/>
<rect x="376" y="123" width="84" height="174" rx="6" fill="url(#tb)" stroke="#737d84"/>
<rect x="390" y="142" width="56" height="49" rx="4" fill="#252c31" stroke="#6d777f"/>
<text x="400" y="172" fill="#e7ecef" font-family="Arial" font-size="10">LOAD</text>
<rect x="391" y="207" width="54" height="62" rx="5" fill="#adb5ba" stroke="#798188"/>
<text x="140" y="359" fill="#f0f3f5" font-family="Arial" font-size="17" font-weight="700">TeSys island / TeSys Tera</text>
<text x="140" y="379" fill="#a7b2bb" font-family="Arial" font-size="10">DIGITAL MOTOR STARTER · REFERENCE VIEW</text>
</g>
</svg>